<?xml version="1.0" encoding="utf-8"?>
<!-- Generator: Adobe Illustrator 24.2.1, SVG Export Plug-In . SVG Version: 6.00 Build 0)  -->
<svg version="1.1" id="Layer_1" xmlns="http://www.w3.org/2000/svg" xmlns:xlink="http://www.w3.org/1999/xlink" x="0px" y="0px"
	 viewBox="0 0 186.9 203" style="enable-background:new 0 0 186.9 203;" xml:space="preserve">
<style type="text/css">
	.st0{fill:#231F20;}
	.st1{fill:none;stroke:#DDCC4E;stroke-width:4;stroke-linecap:round;stroke-linejoin:round;stroke-miterlimit:10;}
	.st2{fill:#DDCC4E;stroke:#DDCC4E;stroke-width:4;stroke-linecap:round;stroke-linejoin:round;stroke-miterlimit:10;}
</style>
<path class="st0" d="M93.4,203c-5.3,0-10.3-2.1-14.1-5.8L5.8,123.7c-3.8-3.8-5.8-8.8-5.8-14.1V19.9C0,8.9,8.9,0,19.9,0H167
	c11,0,19.9,8.9,19.9,19.9v89.7c0,5.3-2.1,10.3-5.8,14.1l-73.5,73.5C103.8,201,98.8,203,93.4,203z"/>
<polygon class="st1" points="173.1,55.2 173.1,113.2 132.1,154.2 132.1,14.2 "/>
<polygon class="st2" points="146.3,48.4 158.9,61.1 158.9,107.4 146.3,120 "/>
<rect x="64.8" y="14.2" class="st1" width="41" height="105.8"/>
<rect x="115.8" y="14.2" class="st2" width="6.3" height="105.8"/>
<rect x="78.9" y="24.9" class="st2" width="12.7" height="84.4"/>
<polygon class="st1" points="40.6,120 27.9,107.3 27.7,41.5 13.8,55.5 13.8,113.2 54.8,154.2 54.8,14.2 40.6,28.4 "/>
<polygon class="st2" points="122.1,164.2 93.4,192.5 64.8,164.2 64.8,130 122.1,130 "/>
<g>
	<path class="st0" d="M92.1,138.2l0,12.6L90,153l2.1,2.1v12.6l-2.1,2.1H77.4l-2.1-2.1v-6.3h5.2v3.2h6.3v-8.4h-6.3v-5.2h0.7h5.7v-9.5
		h-6.3v3.2h-5.2v-6.3l2.1-2.1H90L92.1,138.2z"/>
	<path class="st0" d="M109.5,136.1l2,2.1v29.4l-2,2.1H94.8v-33.6H109.5z M106.3,164.5v-23.1H100v23.1H106.3z"/>
</g>
</svg>
